# xmcd CD database file
#
# Track frame offsets:
#	150
#	22961
#	40694
#	65192
#	88027
#	105776
#
# Disc length: 1736 seconds
#
# Revision: 4
# Processed by: cddbd v1.5.2PL0 Copyright (c) Steve Scherf et al.
# Submitted via: CDex 1.70beta3
#
DISCID=3f06c606
DTITLE=MOSAIC.WAV - MOSAIC.WAV 4th Single 「ギリギリ科学少女ふぉるしぃ」
DYEAR=2006
DGENRE=JPop
TTITLE0=ギリギリ科学少女ふぉるしぃ
TTITLE1=0Hzの恋人
TTITLE2=未来ノスタルジィ
TTITLE3=ギリギリ科学少女ふぉるしぃ(Off Vocal)
TTITLE4=0Hzの恋人(Off Vocal)
TTITLE5=未来ノスタルジィ(Off Vocal)
EXTD=
EXTT0=詞曲:柏森進
EXTT1=曲:山頭水 詞:Rina
EXTT2=曲:小池雅也 詞:み～こ
EXTT3=曲:柏森進
EXTT4=曲:山頭水
EXTT5=曲:小池雅也
PLAYORDER=
